<?xml version="1.0" encoding="utf-8"?>
<!-- Generator: Adobe Illustrator 16.0.4, SVG Export Plug-In . SVG Version: 6.00 Build 0)  -->
<!DOCTYPE svg PUBLIC "-//W3C//DTD SVG 1.1//EN" "http://www.w3.org/Graphics/SVG/1.1/DTD/svg11.dtd">
<svg version="1.1"
	 id="svg8515" inkscape:output_extension="org.inkscape.output.svg.inkscape" sodipodi:docname="Golden_star.svg" sodipodi:docbase="C:\Documents and Settings\Sigurd\Mine dokumenter\Mine bilder" inkscape:version="0.46" sodipodi:version="0.32" xmlns:dc="http://purl.org/dc/elements/1.1/" xmlns:cc="http://creativecommons.org/ns#" xmlns:rdf="http://www.w3.org/1999/02/22-rdf-syntax-ns#" xmlns:svg="http://www.w3.org/2000/svg" xmlns:sodipodi="http://sodipodi.sourceforge.net/DTD/sodipodi-0.dtd" xmlns:inkscape="http://www.inkscape.org/namespaces/inkscape"
	 xmlns="http://www.w3.org/2000/svg" xmlns:xlink="http://www.w3.org/1999/xlink" x="0px" y="0px" width="282.254px"
	 height="270.068px" viewBox="0 0 282.254 270.068" enable-background="new 0 0 282.254 270.068" xml:space="preserve">
<sodipodi:namedview  width="294.19931px" height="343.5px" inkscape:window-y="-8" inkscape:window-x="-8" inkscape:window-height="750" inkscape:window-width="1280" inkscape:current-layer="layer1" inkscape:document-units="px" inkscape:pageopacity="0.0" inkscape:pageshadow="2" showgrid="false" inkscape:cy="135.03435" inkscape:cx="141.12753" inkscape:zoom="2.0105996" objecttolerance="10" guidetolerance="10" gridtolerance="10000" borderopacity="1.0" bordercolor="#666666" pagecolor="#ffffff" id="base">
	</sodipodi:namedview>
<g id="layer1" transform="translate(-198.8725,-145.6783)" inkscape:groupmode="layer" inkscape:label="Layer 1">
	<path id="path3848" fill="#E6E6E6" d="M340.492,293.921l-0.328-142.527l-31.782,98.95L340.492,293.921z"/>
	<path id="path3850" fill="#CACACA" d="M340.164,152.376l31.455,97.64l-31.127,43.577L340.164,152.376z"/>
	<path id="path3852" fill="#8D8D8D" d="M340.492,293.265l134.665-43.25H371.291L340.492,293.265z"/>
	<path id="path3854" fill="#CACACA" d="M340.492,292.937l51.441,17.693l82.896-60.615L340.492,292.937z"/>
	<path id="path3856" fill="#8D8D8D" d="M289.051,310.631l51.769-17.365l-135.647-43.25L289.051,310.631z"/>
	<path id="path3858" fill="#E6E6E6" d="M340.164,292.937l-83.223,116.971l32.437-99.277L340.164,292.937z"/>
	<path id="path3860" fill="#CACACA" d="M340.492,292.937v55.7l-83.223,60.943L340.492,292.937z"/>
	<path id="path3862" fill="#CACACA" d="M340.164,292.937l51.441,17.365l32.109,98.295L340.164,292.937z"/>
	<path id="path3864" fill="#8D8D8D" d="M340.164,348.638l82.896,59.305l-83.551-115.66L340.164,348.638z"/>
	<path id="path3882" fill="#B3B3B3" d="M308.054,250.343l32.437,43.577l-135.646-43.905L308.054,250.343z"/>
	<path id="path3866" fill="#7E7E7E" d="M339.716,152.366l0.656,140.094l-1.5-0.312l-0.031,0.125l-0.031,0.125h0.031l1.125,0.281
		l-0.5,0.688l0.094-0.312l-134-42.906l-0.125,0.375l134,42.938l-81.938,116.375l0.188,0.125l83.219-117.281l0.031-0.031v-0.062
		l-0.969-140.219H339.716z M340.497,264.616l0.188,27.938l-0.062,0.094v-0.062L340.497,264.616z M340.279,292.679l0.188,0.031
		l0.094,0.031l-43.313,61.062L340.279,292.679z"/>
</g>
</svg>
